<svg width="1200" height="400" viewBox="0 0 1200 400" xmlns="http://www.w3.org/2000/svg" role="img" aria-labelledby="title desc">
  <title id="title">Whiteware Lab logo</title>
  <desc id="desc">Whiteware Lab horizontal logo with lab flask and software mark.</desc>
  <rect width="1200" height="400" fill="#FFFFFF"/>
  <g transform="translate(80 40) scale(0.62)">
    <path d="M196 76h120v34h-32v82l100 184-42 42-58-58-28 28-28-28-58 58-42-42 100-184v-82h-32z" fill="none" stroke="#071426" stroke-width="26" stroke-linejoin="round"/>
    <path d="M200 214l-34 34 34 34M312 214l34 34-34 34M272 210l-32 80" fill="none" stroke="#136DFF" stroke-width="18" stroke-linecap="round" stroke-linejoin="round"/>
    <path d="M256 296l54 31v62l-54 31-54-31v-62z" fill="#136DFF"/>
    <path d="M256 296l54 31-54 31-54-31z" fill="#2F82FF"/>
    <path d="M202 327l54 31v62l-54-31z" fill="#0B5FE8"/>
    <path d="M310 327l-54 31v62l54-31z" fill="#0752C9"/>
  </g>
  <text x="430" y="175" font-family="Inter, Segoe UI, Arial, sans-serif" font-size="92" font-weight="800" fill="#071426">Whiteware</text>
  <text x="430" y="275" font-family="Inter, Segoe UI, Arial, sans-serif" font-size="88" font-weight="700" fill="#136DFF">Lab</text>
</svg>
